<?xml version="1.0" encoding="utf-8"?>
<!-- Generator: Adobe Illustrator 15.0.0, SVG Export Plug-In . SVG Version: 6.00 Build 0)  -->
<!DOCTYPE svg PUBLIC "-//W3C//DTD SVG 1.1//EN" "http://www.w3.org/Graphics/SVG/1.1/DTD/svg11.dtd">
<svg version="1.1" id="Layer_1" xmlns="http://www.w3.org/2000/svg" xmlns:xlink="http://www.w3.org/1999/xlink" x="0px" y="0px"
	 width="841.89px" height="595.28px" viewBox="0 0 841.89 595.28" enable-background="new 0 0 841.89 595.28" xml:space="preserve">
<g>
	<path fill-rule="evenodd" clip-rule="evenodd" d="M383,125.28c8.366,9.97,2.491,33.473-10,31
		C358.507,153.411,372.078,125.611,383,125.28z"/>
	<path fill-rule="evenodd" clip-rule="evenodd" d="M413,132.28c8.168,6.404,6.595,28.907-4,31
		C399.044,156.193,405.449,136.781,413,132.28z"/>
	<path fill-rule="evenodd" clip-rule="evenodd" d="M287,147.28c15.016,0.087,28.283,13.004,20,27
		C289.997,175.616,287.233,162.714,287,147.28z"/>
	<path fill-rule="evenodd" clip-rule="evenodd" d="M328,152.28c5.359,10.606-2.928,24.224-15,24
		C309.132,163.15,318.706,155.511,328,152.28z"/>
	<path fill-rule="evenodd" clip-rule="evenodd" d="M387,176.28c10.283,0.717,17.353,4.647,16,17
		C390.818,194.462,386.719,187.561,387,176.28z"/>
	<path fill-rule="evenodd" clip-rule="evenodd" d="M251,188.28c15.213-1.538,26.678,9.042,20,23
		C254.352,213.595,250.35,203.264,251,188.28z"/>
	<path fill-rule="evenodd" clip-rule="evenodd" d="M361,195.28c10.555,0.779,17.25,5.417,16,18
		C365.202,213.745,359.604,208.009,361,195.28z"/>
	<path fill-rule="evenodd" clip-rule="evenodd" d="M526,202.28c-2.999,8.641-23.898,13.4-30,4
		C499.342,194.92,517.873,196.412,526,202.28z"/>
	<path fill-rule="evenodd" clip-rule="evenodd" d="M393,200.28c2.679,8.878-2.381,16.336-13,15
		C379.687,205.634,383.347,199.96,393,200.28z"/>
	<path fill-rule="evenodd" clip-rule="evenodd" d="M460,200.28c8.735,4.864,5.256,23.618-5,24c-2.836-3.497-3.488-9.179-3-16
		C453.998,204.945,457.499,203.112,460,200.28z"/>
	<path fill-rule="evenodd" clip-rule="evenodd" d="M454,229.28c-7.461,5.199-19.912,0.579-19-9
		C443.804,217.676,453.4,220.597,454,229.28z"/>
	<path fill-rule="evenodd" clip-rule="evenodd" d="M419,222.28c11.307,4.314,9.816,27.038-1,27
		C405.276,249.236,409.777,225.807,419,222.28z"/>
	<path fill-rule="evenodd" clip-rule="evenodd" d="M274,247.28c-5.23-7.168,0.329-16.546,5-20
		C286.975,231.075,282.118,247.37,274,247.28z"/>
	<path fill-rule="evenodd" clip-rule="evenodd" d="M514,230.28c5.23,9.755-0.83,24.125-13,23
		C496.791,240.769,505.496,233.331,514,230.28z"/>
	<path fill-rule="evenodd" clip-rule="evenodd" d="M248,233.28c12.345-1.011,19.693,2.974,21,13
		C257.821,249.791,249.395,242.796,248,233.28z"/>
	<path fill-rule="evenodd" clip-rule="evenodd" d="M300,256.28c-15.619-1.519-11.428-31.428,0-20
		C304.551,240.832,303.051,249.717,300,256.28z"/>
	<path fill-rule="evenodd" clip-rule="evenodd" d="M473,266.28c-6.049-10.384,1.455-21.829,9-25
		C490.421,248.458,484.561,266.857,473,266.28z"/>
	<path fill-rule="evenodd" clip-rule="evenodd" d="M327,255.28c-7.4,4.601-16.663,0.364-18-7
		C315.532,243.514,326.84,247.442,327,255.28z"/>
	<path fill-rule="evenodd" clip-rule="evenodd" d="M342,248.28c10.058,1.174,16.502,10.513,13,22
		C343.194,270.42,341.115,260.832,342,248.28z"/>
	<path fill-rule="evenodd" clip-rule="evenodd" d="M413,253.28c0.484,9.185-11.274,10.926-18,7
		C396.378,253.534,405.805,248.023,413,253.28z"/>
	<path fill-rule="evenodd" clip-rule="evenodd" d="M249,266.28c-0.677,10.989-7.876,15.457-20,15
		C229.846,270.894,237.97,263.235,249,266.28z"/>
	<path fill-rule="evenodd" clip-rule="evenodd" d="M277,277.28c1.314,12.002-12.679,13.479-21,10
		C257.744,278.703,268.725,270.235,277,277.28z"/>
	<path fill-rule="evenodd" clip-rule="evenodd" d="M552,275.28c-0.087,14.833-13.367,25.148-28,19
		C525.072,279.686,534.591,273.538,552,275.28z"/>
	<path fill-rule="evenodd" clip-rule="evenodd" d="M222,296.28c-12.089,8.253-25.694-2.115-26-15
		C208.097,276.667,224.977,279.706,222,296.28z"/>
	<path fill-rule="evenodd" clip-rule="evenodd" d="M385,280.28c9.816-0.816,14.073,3.927,14,13
		C389.254,294.026,385.542,288.738,385,280.28z"/>
	<path fill-rule="evenodd" clip-rule="evenodd" d="M464,296.28c0.779,14.112-3.158,23.509-16,24
		C445.144,307.346,452.74,298.221,464,296.28z"/>
	<path fill-rule="evenodd" clip-rule="evenodd" d="M396,297.28c3.738,8.926-2.506,16.022-11,16
		C383.746,303.026,386.937,297.217,396,297.28z"/>
	<path fill-rule="evenodd" clip-rule="evenodd" d="M479,301.28c8.317,2.736,9.485,20.696,1,24
		C469.897,322.326,473.122,306.444,479,301.28z"/>
	<path fill-rule="evenodd" clip-rule="evenodd" d="M319,305.28c-1.394,7.009-8.87,10.756-17,8
		C302.092,305.247,312.243,300.462,319,305.28z"/>
	<path fill-rule="evenodd" clip-rule="evenodd" d="M545,315.28c-8.417,6.747-26.807,1.979-26-10
		C529.897,299.297,541.261,307.698,545,315.28z"/>
	<path fill-rule="evenodd" clip-rule="evenodd" d="M433,304.28c8.271,1.893,12.742,11.847,9,20
		C431.674,324.751,429.409,311.772,433,304.28z"/>
	<path fill-rule="evenodd" clip-rule="evenodd" d="M526,336.28c-12.511,3.503-24.377-2.283-25-14
		C512.815,316.909,522.663,326.938,526,336.28z"/>
	<path fill-rule="evenodd" clip-rule="evenodd" d="M287,335.28c6.042,14.064-6.071,22.749-18,25
		C266.625,347.491,270.489,332.496,287,335.28z"/>
	<path fill-rule="evenodd" clip-rule="evenodd" d="M499,382.28c-8.88-0.943-15.402-12.105-10-21
		C498.266,361.968,502.253,372.3,499,382.28z"/>
	<path fill-rule="evenodd" clip-rule="evenodd" d="M537,374.28c-9.064,4.059-26.253,2.983-25-7
		C513.429,355.891,537.063,362.043,537,374.28z"/>
	<path fill-rule="evenodd" clip-rule="evenodd" d="M329,392.28c-11.607-1.696-19.397-20.087-9-29
		C335.763,362.578,336.652,383.128,329,392.28z"/>
	<path fill-rule="evenodd" clip-rule="evenodd" d="M383,224.28c19.408-7.592,22.587-31.413,24-57c0.288,11.098,0.092,26.726,1,40
		c22.857-2.313,40.29-14.811,36-41c-12.424-0.551-16.063-17.214-11-29c10.88,2.324,21.513,17.485,12,28
		c5.627,20.581-6.487,40.712-21,46c-6.557,2.389-12.797,1.166-19,5c-12.157,7.515-24.253,26.596-27,46
		c-1.218,8.606-1.215,16.401-3,24c-4.671,19.893-13.105,54.791,6,70c5.195-8.796,8.84-26.451,16-38c4.044-6.522,15.44-17.059,0-22
		c5.271-2.908,11.05,2.261,11,8c8.075-4.925,13.591-12.41,20-19c4.785-15.987-7.222-23.296-13-32c3.949,0.403,8.717,8.604,15,10
		c5.537-12.13,19.565-15.768,27-26c0.782-4.449-1.332-6.001-1-10c2.275,2.429,5.016,8.472,3,12c14.076-5.591,17.95-21.383,29-30
		c-6.716,8.695-9.43,17.173-17,27c-12.545,16.283-39.562,18.703-35,48c9.362-7.638,31.556-2.445,35-16c3.11,3.177-2.982,5.635-2,10
		c22.993,2.297,26.145-23.834,47-27c-17.635,5.744-21.525,30.856-44,33c-25.754,2.457-40.661,8.558-56,26
		c-8.839,10.052-14.029,23.539-16,46c17.938-4.73,46.709-7.289,45-35c2.453,7.47-1.882,16.773-3,24
		c35.549-7.451,55.749-30.251,80-49c-11.902,17.099-33.683,32.983-51,48c13.729,5.271,23.974,14.026,37,20
		c-16.725,0.424-27.727-17.096-47-15c-5.006,0.544-8.111,4.84-13,7c-17.005,7.515-40.403,4.185-46,24
		c-4.026,14.253-0.181,35.431,1,51c0.728,9.596-0.004,22.116,1,32c0.461,4.544,3.281,7.111,5,12c3.227,9.179,3.458,14.349,14,19
		c-7.66,6.217-18.292-0.202-25,5c-8.17-5.18-17.761-8.209-26-1c-5.901,0.901-4.26-5.74-9-6c-6.458,1.367-10.97,9.481-18,7
		c7.634-13.109,18.859-24.065,20-43c0.794-13.185-10.698-30.037,3-39c6.793-34.776-12.04-51.73-35-60c-3.567,1.433-8.279,1.722-12,3
		c1.891-3.109,6.13-3.87,10-5c-15.324-11.343-37.564-15.769-52-28c-16.609-3.12-34.539-0.227-44,7c1.59,17.59-10.424,21.576-27,21
		c1.845-12.762,10.458-27.36,25-21c11.416-8.251,22.93-16.403,44-15c-9.325-14.613-26.66-25.633-52-21
		c24.671-11.542,47.45,5.946,61,18c-2.646-9.215,2.983-15.654,2-23c-1.242-9.277-11.804-13.898-12-24
		c-6.927-5.406-18.498-6.168-31-6c8.382-3.66,21.242-0.841,30,1c2.013-2.73-0.423-9.538-2-12c6.655,6.106,5.283,14.924,9,23
		c2.3,4.997,9.1,8.695,11,14c3.333,9.307-2.799,18.835,0,29c2.519,9.146,20.04,16.537,29,20c12.629,4.881,22.438,9.938,34,14
		c-0.959-6.212-4.208-9.892-5-17c-0.98-8.799,3.696-18.836,2-25c-3.066-11.145-21.395-8.21-31-4c4.791-4.542,11.793-6.874,21-7
		c-10.36-10.455-7.877-38.586-32-32c3.33-4.053,13.457-3.65,18-1c2.875-3.92-0.447-10.186-1-14c7.153,18.847,11.159,40.841,28,50
		c4.056-6.652,10.622-25.252,0-29c1.8-2.056,4.908,3.035,8,3c6.62-31.309-14.855-43.129-28-58c-19.289-1.567-41.533-10.438-42,14
		c-2.935-6.955,3.014-13.639,6-18c-2.806-1.345-16.787-2.535-22-3c-2.867-0.256-4.547,1.904-1-1c21.439-2.105,37.02,2.061,55,1
		c-0.686-17.981-10.629-26.704-22-34c12.589,2.415,25.119,13.544,28,29c2.405-20.904,22.108-32.333,32-49
		c-3.307,17.076-23.376,23.781-25,44c-1.952,24.294,18.883,28.136,27,47c3.494-9.682,11.617-20.211,6-33
		C379.617,218.33,381.984,220.629,383,224.28z"/>
</g>
</svg>
